<!-- icon666.com - MILLIONS vector ICONS FREE --><svg viewBox="-1 0 511 512" xmlns="http://www.w3.org/2000/svg"><path d="m387.128906 15.757812v322.878907c0 8.699219-7.050781 15.761719-15.757812 15.761719h-355.113282c-8.707031 0-15.757812-7.0625-15.757812-15.761719v-322.878907c0-8.707031 7.050781-15.757812 15.757812-15.757812h355.113282c8.710937 0 15.757812 7.050781 15.757812 15.757812zm0 0" fill="#ffde55"></path><path d="m387.128906 15.757812v322.878907c0 8.699219-7.050781 15.761719-15.757812 15.761719h-177.550782v-354.398438h177.550782c8.710937 0 15.757812 7.050781 15.757812 15.757812zm0 0" fill="#ffcd00"></path><path d="m250.574219 0v155.917969c0 4.183593-4.632813 6.683593-8.132813 4.394531l-42.875-28.074219c-1.742187-1.144531-3.75-1.722656-5.746094-1.722656-2.007812 0-4.011718.578125-5.757812 1.722656l-42.875 28.074219c-3.496094 2.289062-8.128906-.210938-8.128906-4.394531v-155.917969zm0 0" fill="#ff7c48" style="fill: rgb(71, 255, 102);"></path><path d="m250.574219 0v155.917969c0 4.183593-4.632813 6.683593-8.132813 4.394531l-42.875-28.074219c-1.742187-1.144531-3.75-1.722656-5.746094-1.722656v-130.515625zm0 0" fill="#ff6426" style="fill: rgb(0, 255, 76);"></path><path d="m509.289062 358.019531c0 84.894531-69.074218 153.980469-153.980468 153.980469h-.550782c-84.652343-.296875-153.429687-69.265625-153.429687-153.980469 0-84.726562 68.777344-153.691406 153.429687-153.992187h.550782c84.90625 0 153.980468 69.085937 153.980468 153.992187zm0 0" fill="#ff7c48" style="fill: rgb(71, 255, 102);"></path><path d="m509.289062 358.019531c0 84.894531-69.074218 153.980469-153.980468 153.980469h-.550782v-307.972656h.550782c84.90625 0 153.980468 69.085937 153.980468 153.992187zm0 0" fill="#ff6426" style="fill: rgb(0, 255, 76);"></path><path d="m473.441406 358.019531c0 65.132813-52.988281 118.136719-118.132812 118.136719-.179688 0-.371094 0-.550782-.011719-64.890624-.289062-117.582031-53.171875-117.582031-118.125 0-64.960937 52.691407-117.847656 117.582031-118.132812.179688-.011719.371094-.011719.550782-.011719 65.144531 0 118.132812 53 118.132812 118.144531zm0 0" fill="#fff5cc"></path><path d="m473.441406 358.019531c0 65.132813-52.988281 118.136719-118.132812 118.136719-.179688 0-.371094 0-.550782-.011719v-236.257812c.179688-.011719.371094-.011719.550782-.011719 65.144531 0 118.132812 53 118.132812 118.144531zm0 0" fill="#ffe477"></path><path d="m370.460938 357.421875v14.636719c0 8.667968-7.027344 15.703125-15.703126 15.703125-8.667968 0-15.703124-7.035157-15.703124-15.703125v-15.789063c0-11.105469 6.132812-21.082031 15.703124-26.234375 1.570313-.847656 3.234376-1.570312 4.972657-2.136718 6.949219-2.269532 11.453125-8.992188 10.949219-16.339844-.535157-7.738282-7.015626-14.21875-14.761719-14.75-.386719-.03125-.773438-.042969-1.160157-.042969-8.859374.019531-15.957031 7.152344-15.957031 15.964844 0 8.667969-7.035156 15.703125-15.703125 15.703125-8.675781 0-15.703125-7.035156-15.703125-15.703125 0-26.253907 21.347657-47.359375 47.363281-47.371094 1.109376 0 2.207032.042969 3.328126.113281 23.429687 1.613282 42.316406 20.5 43.925781 43.929688 1.476562 21.375-11.460938 40.976562-31.550781 48.019531zm0 0" fill="#0fa9dd"></path><path d="m370.460938 357.421875v14.636719c0 8.667968-7.027344 15.703125-15.703126 15.703125v-57.726563c1.570313-.847656 3.234376-1.570312 4.972657-2.136718 6.949219-2.269532 11.453125-8.992188 10.949219-16.339844-.535157-7.738282-7.015626-14.21875-14.761719-14.75-.386719-.03125-.773438-.042969-1.160157-.042969v-31.40625c1.109376 0 2.207032.042969 3.328126.113281 23.429687 1.613282 42.316406 20.5 43.925781 43.929688 1.476562 21.375-11.460938 40.976562-31.550781 48.019531zm0 0" fill="#0d91bd"></path><path d="m374.574219 423.292969c0 10.941406-8.867188 19.816406-19.816407 19.816406-10.941406 0-19.820312-8.875-19.820312-19.816406 0-10.941407 8.878906-19.816407 19.820312-19.816407 10.949219 0 19.816407 8.875 19.816407 19.816407zm0 0" fill="#0fa9dd"></path><path d="m374.574219 423.292969c0 10.941406-8.867188 19.816406-19.816407 19.816406v-39.632813c10.949219 0 19.816407 8.875 19.816407 19.816407zm0 0" fill="#0d91bd"></path></svg>